<?xml version="1.0" encoding="utf-8"?>
<!-- Generator: Adobe Illustrator 28.0.0, SVG Export Plug-In . SVG Version: 6.00 Build 0)  -->
<svg version="1.1" id="Layer_1" xmlns="http://www.w3.org/2000/svg" xmlns:xlink="http://www.w3.org/1999/xlink" x="0px" y="0px"
	 viewBox="0 0 512 512" style="enable-background:new 0 0 512 512;" xml:space="preserve">
<style type="text/css">
	.st0{fill:#FFFFFF;}
</style>
<g transform="translate(0,0)">
	<path class="st0" d="M265.5,21.6l6.3,111.9L298.2,94L334,21.6L265.5,21.6L265.5,21.6z M354.9,21.6l-47.5,95.8l-6.8,19.2l48.8-30.7
		l0,0L453,21.6L354.9,21.6L354.9,21.6z M478.8,21.6l1.5,1.9l-87.2,70.9l-78.6,70.5l69.5-19.2l109.7-42.1V21.6H478.8L478.8,21.6z
		 M133.2,22.2c-1.2,0-2.1,0.1-2.6,0.1c-37.7,0-66.1,37.7-66.1,81.6c0,17,4.3,32.8,11.6,46c-12.3,4.7-22.3,12.8-29.9,22.9
		c-10.2,13.6-16.4,30.7-20.4,49.3c-8.1,37.1-7.6,80.6-7.6,115.8v9.3h39.7l9.7,146.6h122.1l7.2-96.2c-6.1-5.2-11.9-10.5-17.6-15.9
		l-7,93.4H85.1l-9.7-146.6H36.9c0-33.3,0.4-71.4,7.2-102.5c3.7-17,9.3-31.6,17.1-42.1c7.8-10.5,17.4-17,31.3-19.2l15.9-2.5
		l-10.1-12.6c-9.1-11.4-15.2-27.7-15.2-45.8c0-36,22.6-62.9,47.4-62.9c2.8,0,4.4-0.1,4.6-0.1l0.1,0c22.6,3,42.7,29.2,42.7,63
		c0,18.5-6.4,34.9-15.8,46.3l26.4-7.8c5.1-11.5,8-24.6,8-38.5c0-41.2-24.4-77-59-81.5l0,0l-1.2-0.1h0.5
		C135.5,22.2,134.2,22.2,133.2,22.2L133.2,22.2z M137,22.3c0.3,0,0.5,0,0.8,0.1l0,0l-0.6-0.1L137,22.3L137,22.3z M493.8,123.6
		l-104.2,40L319.5,201l98.1,5.5l76.2-10L493.8,123.6L493.8,123.6z M493.8,215.3l-78,10.2L313,259.5l96.7,34.3l84.1,11L493.8,215.3
		L493.8,215.3z M416.5,313.6l-112.4,0.3l104.6,68l0-0.1l85,38.4v-96.5L416.5,313.6L416.5,313.6z M297.6,369.1l54.3,62.4l75.1,62.3
		h66.8v-53.1l-92.7-41.9l0.1-0.1L297.6,369.1L297.6,369.1z M272,408.6l12.6,27.7l44.1,57.5h69.1L336,442.6L272,408.6L272,408.6z
		 M249.4,428.4l-3.2,65.4h59L268.5,446L249.4,428.4L249.4,428.4z M224.3,157.2c-6.9,0-13.2,2.7-18,7c-4.8-4.3-11-7-18-7
		c-44.6,0-80.8,64.3-80.8,143.7c0,39.7,32.2,71.8,71.8,71.8l9,0c6.9,0,13.2-2.7,18-7c4.8,4.3,11,7,18,7l9,0
		c39.7,0,71.8-32.2,71.8-71.8C305.1,221.5,268.9,157.2,224.3,157.2z M197.4,193.2c0,12.4-10,22.4-22.4,22.4h-18v13.5h18
		c8.5,0,16.3-3.1,22.4-8.1v88.9h-18c-12.4,0-22.4-10-22.4-22.4V274h-13.5v13.5c0,16.7,11.5,30.6,26.9,34.6v19.2h13.5v-18h13.5v22.4
		c0,5-4,9-9,9l-9,0c-29.7,0-53.9-24.2-53.9-53.9c0-15.6,1.6-30.7,4.4-44.9h27l0,0v0c7.4,0,13.5,6,13.5,13.5v18h13.5v-18
		c0-14.9-12.1-26.9-26.9-26.9v0l0,0h-23.8c3.5-12.6,8.1-24.3,13.8-34.4c11.8-20.9,26.9-32.9,41.5-32.9c4.9,0,9,4,9,9L197.4,193.2
		L197.4,193.2z M233.3,354.8l-9,0c-4.9,0-9-4-9-9v-22.4h13.5v18h13.5v-19.2c15.5-4,26.9-17.9,26.9-34.6V274h-13.5v13.5
		c0,12.4-10.1,22.4-22.4,22.4h-18V221c6.2,5,13.9,8.1,22.4,8.1h18v-13.5h-18c-12.4,0-22.4-10.1-22.4-22.4v-9c0-5,4-9,9-9
		c14.6,0,29.7,12,41.5,32.9c5.7,10.1,10.3,21.8,13.8,34.4h-23.8l0,0v0c-14.9,0-26.9,12-26.9,26.9v18h13.5v-18
		c0-7.4,6-13.5,13.5-13.5v0l0,0h27c2.9,14.2,4.4,29.3,4.4,44.9C287.1,330.6,263,354.8,233.3,354.8z"/>
</g>
</svg>
