<?xml version="1.0" encoding="utf-8"?>
<!-- Generator: Adobe Illustrator 28.0.0, SVG Export Plug-In . SVG Version: 6.00 Build 0)  -->
<svg version="1.1" id="Layer_1" xmlns="http://www.w3.org/2000/svg" xmlns:xlink="http://www.w3.org/1999/xlink" x="0px" y="0px"
	 viewBox="0 0 100 100" style="enable-background:new 0 0 100 100;" xml:space="preserve">
<style type="text/css">
	.st0{fill:#FFFFFF;}
</style>
<path class="st0" d="M56.7,10c-2.6,0-4.9,1-6.7,2.6C48.2,11,45.9,10,43.3,10c-16.6,0-30,23.9-30,53.3C13.3,78.1,25.3,90,40,90l3.3,0
	c2.6,0,4.9-1,6.7-2.6c1.8,1.6,4.1,2.6,6.7,2.6l3.3,0c14.7,0,26.7-11.9,26.7-26.7C86.7,33.9,73.2,10,56.7,10z M46.7,23.3
	c0,4.6-3.7,8.3-8.3,8.3h-6.7v5h6.7c3.2,0,6-1.2,8.3-3v33H40c-4.6,0-8.3-3.7-8.3-8.3v-5h-5v5c0,6.2,4.3,11.4,10,12.9v7.1h5v-6.7h5V80
	c0,1.8-1.5,3.3-3.3,3.3l-3.3,0c-11,0-20-9-20-20c0-5.8,0.6-11.4,1.6-16.7h10l0,0v0c2.8,0,5,2.2,5,5v6.7h5v-6.7c0-5.5-4.5-10-10-10v0
	l0,0h-8.8c1.3-4.7,3-9,5.1-12.8c4.4-7.8,10-12.2,15.4-12.2c1.8,0,3.3,1.5,3.3,3.3L46.7,23.3L46.7,23.3z M60,83.3l-3.3,0
	c-1.8,0-3.3-1.5-3.3-3.3v-8.3h5v6.7h5v-7.1c5.7-1.5,10-6.7,10-12.9v-5h-5v5c0,4.6-3.7,8.3-8.3,8.3h-6.7v-33c2.3,1.8,5.2,3,8.3,3h6.7
	v-5h-6.7c-4.6,0-8.3-3.7-8.3-8.3V20c0-1.8,1.5-3.3,3.3-3.3c5.4,0,11,4.5,15.4,12.2c2.1,3.8,3.8,8.1,5.1,12.8h-8.8l0,0v0
	c-5.5,0-10,4.5-10,10v6.7h5v-6.7c0-2.8,2.2-5,5-5v0l0,0h10c1.1,5.3,1.6,10.9,1.6,16.7C80,74.4,71,83.3,60,83.3z"/>
</svg>
